<svg xmlns="http://www.w3.org/2000/svg" xmlns:xlink="http://www.w3.org/1999/xlink" width="500" zoomAndPan="magnify" viewBox="0 0 375 374.999991" height="500" preserveAspectRatio="xMidYMid meet" version="1.0"><defs><g/></defs><g fill="#ffffff" fill-opacity="1"><g transform="translate(37.92952, 207.117834)"><g><path d="M 14.59375 0.109375 L 12.859375 0.0625 L 11.234375 -0.5 L 10.515625 -1.734375 L 10.625 -2.796875 L 10.6875 -6.046875 L 10.5625 -7.21875 L 10.625 -11.75 L 10.734375 -12.859375 L 10.5625 -21.1875 L 10.6875 -22.765625 L 10.625 -23.875 L 10.6875 -25.109375 L 10.5625 -26.671875 L 10.6875 -28.46875 L 10.0625 -29.578125 L 9 -30.140625 L 3.6875 -30.25 L 2.578125 -30.140625 L 1.5625 -30.703125 L 1.0625 -31.703125 L 0.953125 -33.4375 L 1.0625 -36.234375 L 1 -37.359375 L 1.671875 -38.640625 L 2.734375 -39.203125 L 6.65625 -38.984375 L 8.390625 -39.140625 L 11.6875 -38.984375 L 12.6875 -39.203125 L 13.921875 -39.09375 L 15.09375 -39.25 L 16.15625 -39.203125 L 17.28125 -38.984375 L 21.8125 -39.203125 L 22.875 -39.09375 L 24.046875 -39.25 L 25.109375 -39.140625 L 28.578125 -39.140625 L 29.640625 -38.421875 L 30.25 -37.296875 L 30.203125 -31.984375 L 29.53125 -30.75 L 28.578125 -30.140625 L 27.5625 -30.203125 L 26.390625 -30.03125 L 24.328125 -30.3125 L 22.140625 -30.203125 L 21.078125 -29.53125 L 20.640625 -27.84375 L 20.46875 -22.984375 L 20.640625 -21.8125 L 20.515625 -12.8125 L 20.6875 -11.578125 L 20.578125 -10.5625 L 20.640625 -8.328125 L 20.515625 -7.15625 L 20.6875 -5.03125 L 20.515625 -2.125 L 19.96875 -0.5625 L 18.34375 0 Z M 14.59375 0.109375 "/></g></g></g><g fill="#ffffff" fill-opacity="1"><g transform="translate(69.183276, 207.117834)"><g><path d="M 22.421875 0.734375 L 19.0625 0.5625 L 14.3125 -0.84375 L 13.25 -1.28125 L 9.453125 -3.296875 L 8.71875 -4.140625 L 7.15625 -5.640625 L 4.53125 -9.234375 L 3.96875 -10.234375 L 3.640625 -11.40625 L 2.796875 -13.3125 L 2.1875 -16.828125 L 2.40625 -23.3125 L 2.859375 -25.71875 L 3.921875 -28.796875 L 4.421875 -29.75 L 6.3125 -32.546875 L 7.828125 -34.21875 L 9.625 -35.453125 L 10.40625 -36.125 L 13.25 -37.921875 L 15.375 -38.46875 L 16.390625 -38.921875 L 17.5 -39.25 L 18.625 -39.484375 L 22.53125 -39.703125 L 25.171875 -39.65625 L 32.484375 -37.359375 L 35.34375 -35.5625 L 37.75 -33.390625 L 38.46875 -32.375 L 39.140625 -31.703125 L 39.875 -30.75 L 40.265625 -29.75 L 41.265625 -27.90625 L 41.546875 -26.625 L 42 -25.4375 L 42.4375 -23.375 L 42.71875 -19.515625 L 42.4375 -15.609375 L 42.21875 -14.375 L 41.890625 -13.484375 L 41.71875 -12.359375 L 41.328125 -11.296875 L 39.140625 -7.4375 L 38.421875 -6.4375 L 34.5 -2.6875 L 29.53125 -0.453125 L 27.40625 0.21875 Z M 20.859375 -9.109375 L 24.109375 -9.234375 L 25.171875 -9.5 L 26.171875 -9.625 L 27.0625 -10.125 L 28.078125 -10.5625 L 29.8125 -11.90625 L 30.484375 -12.921875 L 30.984375 -13.75 L 31.59375 -14.59375 L 32.09375 -16.890625 L 32.4375 -19.6875 L 32.21875 -22.09375 L 31.8125 -23.09375 L 31.484375 -24.21875 L 31.03125 -25.21875 L 29.75 -27.125 L 28.015625 -28.40625 L 25.046875 -29.6875 L 22.375 -29.859375 L 19.796875 -29.640625 L 18.625 -29.359375 L 17.609375 -28.859375 L 16 -27.734375 L 15.15625 -27.015625 L 14.421875 -26.109375 L 13.921875 -25.171875 L 13.25 -24.375 L 12.921875 -23.375 L 12.53125 -21.3125 L 12.46875 -19.625 L 12.75 -16.828125 L 13.8125 -13.703125 L 14.546875 -12.921875 L 15.09375 -12.140625 L 16.828125 -10.625 L 18.734375 -9.625 L 19.734375 -9.5 Z M 20.859375 -9.109375 "/></g></g></g><g fill="#ffffff" fill-opacity="1"><g transform="translate(114.023181, 207.117834)"><g><path d="M 17.21875 0.171875 L 14.9375 -0.0625 L 13.8125 0.109375 L 6.984375 0 L 5.875 0.109375 L 4.75 -0.453125 L 4.1875 -2.1875 L 4.1875 -5.03125 L 4.078125 -6.09375 L 4.140625 -37.359375 L 4.640625 -38.53125 L 5.875 -39.03125 L 6.984375 -38.984375 L 8 -39.140625 L 20.75 -39.03125 L 24.046875 -38.53125 L 25.21875 -38.25 L 26.171875 -37.796875 L 27.296875 -37.578125 L 28.359375 -36.96875 L 31.203125 -35.0625 L 34.171875 -31.765625 L 36.0625 -28.796875 L 36.515625 -27.734375 L 37.25 -25.609375 L 38.03125 -21.1875 L 38.078125 -19.578125 L 37.921875 -17.78125 L 37.921875 -16.609375 L 37.75 -15.484375 L 37.40625 -14.546875 L 37.1875 -13.359375 L 36.90625 -12.296875 L 36.015625 -10.125 L 35.34375 -9.234375 L 34.78125 -8.109375 L 32.046875 -4.578125 L 28.296875 -2.0625 L 25.671875 -0.953125 L 23.375 -0.5625 L 21.75 -0.0625 L 20.640625 -0.0625 L 18.90625 0.171875 Z M 17.0625 -9 L 18.734375 -9.0625 L 21.140625 -9.34375 L 22.765625 -9.84375 L 24.65625 -11.078125 L 26.734375 -13.421875 L 27.6875 -15.484375 L 28.234375 -19.40625 L 27.34375 -24.328125 L 26.84375 -25.328125 L 26.28125 -26.28125 L 25.4375 -27.296875 L 24.609375 -28.078125 L 23.765625 -28.6875 L 22.765625 -29.1875 L 20.578125 -29.8125 L 18.953125 -29.96875 L 16.609375 -29.921875 L 14.8125 -29.53125 L 14.265625 -28.234375 L 14.140625 -27.296875 L 14.265625 -19.578125 L 14.03125 -16.78125 L 14.265625 -14.03125 L 14.203125 -11.75 L 14.265625 -10.796875 L 14.703125 -9.734375 L 16 -9.109375 Z M 17.0625 -9 "/></g></g></g><g fill="#ffffff" fill-opacity="1"><g transform="translate(154.669834, 207.117834)"><g><path d="M 22.421875 0.734375 L 19.0625 0.5625 L 14.3125 -0.84375 L 13.25 -1.28125 L 9.453125 -3.296875 L 8.71875 -4.140625 L 7.15625 -5.640625 L 4.53125 -9.234375 L 3.96875 -10.234375 L 3.640625 -11.40625 L 2.796875 -13.3125 L 2.1875 -16.828125 L 2.40625 -23.3125 L 2.859375 -25.71875 L 3.921875 -28.796875 L 4.421875 -29.75 L 6.3125 -32.546875 L 7.828125 -34.21875 L 9.625 -35.453125 L 10.40625 -36.125 L 13.25 -37.921875 L 15.375 -38.46875 L 16.390625 -38.921875 L 17.5 -39.25 L 18.625 -39.484375 L 22.53125 -39.703125 L 25.171875 -39.65625 L 32.484375 -37.359375 L 35.34375 -35.5625 L 37.75 -33.390625 L 38.46875 -32.375 L 39.140625 -31.703125 L 39.875 -30.75 L 40.265625 -29.75 L 41.265625 -27.90625 L 41.546875 -26.625 L 42 -25.4375 L 42.4375 -23.375 L 42.71875 -19.515625 L 42.4375 -15.609375 L 42.21875 -14.375 L 41.890625 -13.484375 L 41.71875 -12.359375 L 41.328125 -11.296875 L 39.140625 -7.4375 L 38.421875 -6.4375 L 34.5 -2.6875 L 29.53125 -0.453125 L 27.40625 0.21875 Z M 20.859375 -9.109375 L 24.109375 -9.234375 L 25.171875 -9.5 L 26.171875 -9.625 L 27.0625 -10.125 L 28.078125 -10.5625 L 29.8125 -11.90625 L 30.484375 -12.921875 L 30.984375 -13.75 L 31.59375 -14.59375 L 32.09375 -16.890625 L 32.4375 -19.6875 L 32.21875 -22.09375 L 31.8125 -23.09375 L 31.484375 -24.21875 L 31.03125 -25.21875 L 29.75 -27.125 L 28.015625 -28.40625 L 25.046875 -29.6875 L 22.375 -29.859375 L 19.796875 -29.640625 L 18.625 -29.359375 L 17.609375 -28.859375 L 16 -27.734375 L 15.15625 -27.015625 L 14.421875 -26.109375 L 13.921875 -25.171875 L 13.25 -24.375 L 12.921875 -23.375 L 12.53125 -21.3125 L 12.46875 -19.625 L 12.75 -16.828125 L 13.8125 -13.703125 L 14.546875 -12.921875 L 15.09375 -12.140625 L 16.828125 -10.625 L 18.734375 -9.625 L 19.734375 -9.5 Z M 20.859375 -9.109375 "/></g></g></g><g fill="#ffffff" fill-opacity="1"><g transform="translate(199.50974, 207.117834)"><g/></g></g><g fill="#ffffff" fill-opacity="1"><g transform="translate(214.661385, 207.117834)"><g><path d="M 4.25 -2.015625 L 4.1875 -22.984375 L 4.078125 -24.046875 L 4.03125 -25.28125 L 4.1875 -27.34375 L 4.078125 -28.46875 L 4.1875 -29.53125 L 4.1875 -37.359375 L 4.703125 -38.59375 L 5.875 -39.03125 L 6.9375 -39.203125 L 9.171875 -38.984375 L 10.296875 -39.203125 L 12.46875 -39.203125 L 13.59375 -38.53125 L 14.140625 -37.296875 L 14.09375 -36.234375 L 14.265625 -33.046875 L 14.140625 -30.8125 L 14.265625 -29.46875 L 14.203125 -10.515625 L 14.65625 -9.390625 L 15.765625 -8.953125 L 16.9375 -9.0625 L 19.125 -8.953125 L 20.125 -9.109375 L 21.25 -8.890625 L 23.546875 -8.953125 L 24.71875 -8.78125 L 25.78125 -9 L 26.953125 -9.109375 L 27.953125 -8.4375 L 28.46875 -6.765625 L 28.515625 -2.234375 L 27.90625 -0.5 L 26.84375 0.0625 L 15.765625 0 L 14.546875 0.109375 L 13.484375 -0.0625 L 11.359375 0.0625 L 9.171875 -0.0625 L 6.828125 0.109375 L 5.703125 0 L 4.640625 -0.5625 Z M 4.25 -2.015625 "/></g></g></g><g fill="#ffffff" fill-opacity="1"><g transform="translate(244.741022, 207.117834)"><g><path d="M 18.734375 0.21875 L 17.609375 -0.0625 L 14.875 -0.0625 L 13.203125 0.171875 L 10.953125 -0.0625 L 9.84375 0.0625 L 8.109375 0.109375 L 6.484375 -0.109375 L 5.421875 0 L 4.359375 0 L 3.25 -0.5 L 2.6875 -2.015625 L 2.859375 -7.15625 L 3.46875 -8.171875 L 7.15625 -9.28125 L 7.765625 -10.953125 L 7.609375 -28.125 L 7.109375 -29.640625 L 6.046875 -30.3125 L 4.921875 -30.3125 L 3.6875 -30.921875 L 3.078125 -32.046875 L 3.1875 -33.109375 L 3.015625 -37.25 L 3.578125 -38.59375 L 4.703125 -39.140625 L 5.984375 -39.140625 L 7.046875 -38.984375 L 11.625 -38.984375 L 12.75 -39.203125 L 13.75 -39.09375 L 20.515625 -39.09375 L 21.53125 -38.46875 L 22.203125 -37.40625 L 22.140625 -31.875 L 21.578125 -30.984375 L 20.40625 -30.53125 L 19.296875 -30.359375 L 18.0625 -29.859375 L 17.671875 -28.578125 L 17.453125 -22.921875 L 17.671875 -18.90625 L 17.5625 -17.671875 L 17.609375 -11.515625 L 17.453125 -10.453125 L 18.125 -9.171875 L 19.453125 -8.71875 L 20.640625 -8.71875 L 21.859375 -8.109375 L 22.53125 -7.046875 L 22.53125 -1.515625 L 21.984375 -0.453125 L 20.96875 0.109375 Z M 18.734375 0.21875 "/></g></g></g><g fill="#ffffff" fill-opacity="1"><g transform="translate(270.124222, 207.117834)"><g><path d="M 15.046875 0.5 L 12.75 0.109375 L 10.5625 -0.671875 L 9.453125 -1 L 8.390625 -1.515625 L 7.609375 -2.34375 L 5.640625 -3.578125 L 4.921875 -4.421875 L 4.140625 -5.140625 L 3.078125 -7.21875 L 2.734375 -8.21875 L 2.515625 -9.34375 L 2.34375 -10.453125 L 2.796875 -11.625 L 3.796875 -12.078125 L 8.109375 -12.296875 L 9.171875 -12.140625 L 10.171875 -12.25 L 11.296875 -11.796875 L 13.140625 -9.78125 L 14.09375 -9.171875 L 15.046875 -8.671875 L 17.890625 -8.390625 L 18.90625 -8.5625 L 20.640625 -8.671875 L 22.53125 -9.5 L 23.265625 -10.34375 L 23.703125 -11.75 L 23.375 -13.140625 L 22.640625 -13.8125 L 20.640625 -14.765625 L 11.859375 -15.765625 L 9.84375 -16.4375 L 6.046875 -18.515625 L 3.96875 -21.078125 L 3.078125 -23.046875 L 2.6875 -25.28125 L 2.625 -27.015625 L 2.796875 -29.75 L 3.796875 -32.828125 L 5.765625 -35.453125 L 8.4375 -37.296875 L 10.34375 -38.421875 L 12.46875 -39.09375 L 13.484375 -39.25 L 14.59375 -39.3125 L 15.828125 -39.65625 L 20.125 -39.53125 L 22.3125 -39.09375 L 25.4375 -38.03125 L 29.140625 -35.453125 L 30.359375 -33.78125 L 31.9375 -30.875 L 32.046875 -29.8125 L 32.265625 -28.75 L 31.8125 -27.796875 L 30.75 -27.015625 L 29.75 -27.125 L 28.625 -27.125 L 27.125 -27.234375 L 24.5 -27.015625 L 23.265625 -27.734375 L 22.421875 -28.859375 L 21.46875 -29.640625 L 20.46875 -30.3125 L 19.453125 -30.59375 L 17.671875 -30.8125 L 15.875 -30.75 L 14.875 -30.53125 L 13.984375 -30.03125 L 13.140625 -29.421875 L 12.46875 -28.6875 L 12.1875 -27.171875 L 12.421875 -25.5 L 13.25 -24.71875 L 15.328125 -23.703125 L 18.28125 -23.09375 L 19.90625 -23.09375 L 21.078125 -22.875 L 22.203125 -22.8125 L 23.3125 -22.640625 L 27.6875 -21.3125 L 28.6875 -20.6875 L 29.578125 -20.25 L 30.59375 -19.34375 L 32.046875 -17.671875 L 32.65625 -16.78125 L 33.5 -13.53125 L 33.609375 -11.75 L 33.28125 -8.953125 L 32.9375 -8 L 32.609375 -6.984375 L 31.984375 -5.765625 L 31.421875 -4.984375 L 29.8125 -3.296875 L 26 -1 L 24.9375 -0.5 L 23.9375 -0.390625 L 22.8125 0.0625 L 21.703125 0.21875 L 20.578125 0.5 L 19.453125 0.609375 Z M 15.046875 0.5 "/></g></g></g><g fill="#ffffff" fill-opacity="1"><g transform="translate(305.794859, 207.117834)"><g><path d="M 14.59375 0.109375 L 12.859375 0.0625 L 11.234375 -0.5 L 10.515625 -1.734375 L 10.625 -2.796875 L 10.6875 -6.046875 L 10.5625 -7.21875 L 10.625 -11.75 L 10.734375 -12.859375 L 10.5625 -21.1875 L 10.6875 -22.765625 L 10.625 -23.875 L 10.6875 -25.109375 L 10.5625 -26.671875 L 10.6875 -28.46875 L 10.0625 -29.578125 L 9 -30.140625 L 3.6875 -30.25 L 2.578125 -30.140625 L 1.5625 -30.703125 L 1.0625 -31.703125 L 0.953125 -33.4375 L 1.0625 -36.234375 L 1 -37.359375 L 1.671875 -38.640625 L 2.734375 -39.203125 L 6.65625 -38.984375 L 8.390625 -39.140625 L 11.6875 -38.984375 L 12.6875 -39.203125 L 13.921875 -39.09375 L 15.09375 -39.25 L 16.15625 -39.203125 L 17.28125 -38.984375 L 21.8125 -39.203125 L 22.875 -39.09375 L 24.046875 -39.25 L 25.109375 -39.140625 L 28.578125 -39.140625 L 29.640625 -38.421875 L 30.25 -37.296875 L 30.203125 -31.984375 L 29.53125 -30.75 L 28.578125 -30.140625 L 27.5625 -30.203125 L 26.390625 -30.03125 L 24.328125 -30.3125 L 22.140625 -30.203125 L 21.078125 -29.53125 L 20.640625 -27.84375 L 20.46875 -22.984375 L 20.640625 -21.8125 L 20.515625 -12.8125 L 20.6875 -11.578125 L 20.578125 -10.5625 L 20.640625 -8.328125 L 20.515625 -7.15625 L 20.6875 -5.03125 L 20.515625 -2.125 L 19.96875 -0.5625 L 18.34375 0 Z M 14.59375 0.109375 "/></g></g></g></svg>